<mxfile host="Electron" modified="2023-09-19T22:09:32.965Z" agent="Mozilla/5.0 (Macintosh; Intel Mac OS X 10_15_7) AppleWebKit/537.36 (KHTML, like Gecko) draw.io/21.7.5 Chrome/114.0.5735.289 Electron/25.8.1 Safari/537.36" etag="V3apqflVcRVK7gGfIRKD" version="21.7.5" type="device">
  <diagram name="PÃ¡gina-1" id="QEh4J8MYtlf2XqvQtgVq">
    <mxGraphModel dx="819" dy="488" grid="1" gridSize="10" guides="1" tooltips="1" connect="1" arrows="1" fold="1" page="1" pageScale="1" pageWidth="827" pageHeight="1169" math="0" shadow="0">
      <root>
        <mxCell id="0" />
        <mxCell id="1" parent="0" />
        <mxCell id="QMuIwG_EA1-AN-d4cOTI-7" style="edgeStyle=orthogonalEdgeStyle;rounded=0;orthogonalLoop=1;jettySize=auto;html=1;" edge="1" parent="1" source="QMuIwG_EA1-AN-d4cOTI-1" target="QMuIwG_EA1-AN-d4cOTI-4">
          <mxGeometry relative="1" as="geometry">
            <Array as="points">
              <mxPoint x="400" y="570" />
              <mxPoint x="400" y="570" />
            </Array>
          </mxGeometry>
        </mxCell>
        <mxCell id="QMuIwG_EA1-AN-d4cOTI-10" value="{user.pass}" style="edgeLabel;html=1;align=center;verticalAlign=middle;resizable=0;points=[];" vertex="1" connectable="0" parent="QMuIwG_EA1-AN-d4cOTI-7">
          <mxGeometry x="-0.4211" relative="1" as="geometry">
            <mxPoint as="offset" />
          </mxGeometry>
        </mxCell>
        <mxCell id="QMuIwG_EA1-AN-d4cOTI-1" value="cadastro" style="rounded=0;whiteSpace=wrap;html=1;" vertex="1" parent="1">
          <mxGeometry x="180" y="480" width="120" height="60" as="geometry" />
        </mxCell>
        <mxCell id="QMuIwG_EA1-AN-d4cOTI-12" style="edgeStyle=orthogonalEdgeStyle;rounded=0;orthogonalLoop=1;jettySize=auto;html=1;entryX=-0.016;entryY=0.427;entryDx=0;entryDy=0;entryPerimeter=0;" edge="1" parent="1" source="QMuIwG_EA1-AN-d4cOTI-2" target="QMuIwG_EA1-AN-d4cOTI-4">
          <mxGeometry relative="1" as="geometry">
            <Array as="points">
              <mxPoint x="360" y="640" />
              <mxPoint x="360" y="628" />
            </Array>
          </mxGeometry>
        </mxCell>
        <mxCell id="QMuIwG_EA1-AN-d4cOTI-14" value="{user.pass}" style="edgeLabel;html=1;align=center;verticalAlign=middle;resizable=0;points=[];" vertex="1" connectable="0" parent="QMuIwG_EA1-AN-d4cOTI-12">
          <mxGeometry x="-0.1631" y="-1" relative="1" as="geometry">
            <mxPoint as="offset" />
          </mxGeometry>
        </mxCell>
        <mxCell id="QMuIwG_EA1-AN-d4cOTI-2" value="login" style="rounded=0;whiteSpace=wrap;html=1;" vertex="1" parent="1">
          <mxGeometry x="90" y="630" width="120" height="60" as="geometry" />
        </mxCell>
        <mxCell id="QMuIwG_EA1-AN-d4cOTI-18" style="edgeStyle=orthogonalEdgeStyle;rounded=0;orthogonalLoop=1;jettySize=auto;html=1;entryX=-0.005;entryY=0.838;entryDx=0;entryDy=0;entryPerimeter=0;" edge="1" parent="1" source="QMuIwG_EA1-AN-d4cOTI-3" target="QMuIwG_EA1-AN-d4cOTI-4">
          <mxGeometry relative="1" as="geometry" />
        </mxCell>
        <mxCell id="QMuIwG_EA1-AN-d4cOTI-19" value="&amp;lt;access_token&amp;gt;" style="edgeLabel;html=1;align=center;verticalAlign=middle;resizable=0;points=[];" vertex="1" connectable="0" parent="QMuIwG_EA1-AN-d4cOTI-18">
          <mxGeometry x="-0.7114" y="1" relative="1" as="geometry">
            <mxPoint as="offset" />
          </mxGeometry>
        </mxCell>
        <mxCell id="QMuIwG_EA1-AN-d4cOTI-3" value="auth" style="rounded=0;whiteSpace=wrap;html=1;" vertex="1" parent="1">
          <mxGeometry x="90" y="730" width="120" height="110" as="geometry" />
        </mxCell>
        <mxCell id="QMuIwG_EA1-AN-d4cOTI-6" style="edgeStyle=orthogonalEdgeStyle;rounded=0;orthogonalLoop=1;jettySize=auto;html=1;" edge="1" parent="1" source="QMuIwG_EA1-AN-d4cOTI-4" target="QMuIwG_EA1-AN-d4cOTI-5">
          <mxGeometry relative="1" as="geometry" />
        </mxCell>
        <mxCell id="QMuIwG_EA1-AN-d4cOTI-13" style="edgeStyle=orthogonalEdgeStyle;rounded=0;orthogonalLoop=1;jettySize=auto;html=1;entryX=1.035;entryY=0.874;entryDx=0;entryDy=0;entryPerimeter=0;" edge="1" parent="1" source="QMuIwG_EA1-AN-d4cOTI-4" target="QMuIwG_EA1-AN-d4cOTI-2">
          <mxGeometry relative="1" as="geometry">
            <Array as="points">
              <mxPoint x="350" y="680" />
              <mxPoint x="350" y="682" />
            </Array>
          </mxGeometry>
        </mxCell>
        <mxCell id="QMuIwG_EA1-AN-d4cOTI-15" value="{JWT}" style="edgeLabel;html=1;align=center;verticalAlign=middle;resizable=0;points=[];" vertex="1" connectable="0" parent="QMuIwG_EA1-AN-d4cOTI-13">
          <mxGeometry x="0.1639" y="-1" relative="1" as="geometry">
            <mxPoint as="offset" />
          </mxGeometry>
        </mxCell>
        <mxCell id="QMuIwG_EA1-AN-d4cOTI-20" style="edgeStyle=orthogonalEdgeStyle;rounded=0;orthogonalLoop=1;jettySize=auto;html=1;entryX=0.949;entryY=1.043;entryDx=0;entryDy=0;entryPerimeter=0;" edge="1" parent="1" source="QMuIwG_EA1-AN-d4cOTI-4" target="QMuIwG_EA1-AN-d4cOTI-3">
          <mxGeometry relative="1" as="geometry">
            <Array as="points">
              <mxPoint x="385" y="790" />
              <mxPoint x="385" y="870" />
              <mxPoint x="134" y="870" />
            </Array>
          </mxGeometry>
        </mxCell>
        <mxCell id="QMuIwG_EA1-AN-d4cOTI-21" value="{data, or erro}" style="edgeLabel;html=1;align=center;verticalAlign=middle;resizable=0;points=[];" vertex="1" connectable="0" parent="QMuIwG_EA1-AN-d4cOTI-20">
          <mxGeometry x="0.2205" y="1" relative="1" as="geometry">
            <mxPoint as="offset" />
          </mxGeometry>
        </mxCell>
        <mxCell id="QMuIwG_EA1-AN-d4cOTI-4" value="API" style="rounded=0;whiteSpace=wrap;html=1;" vertex="1" parent="1">
          <mxGeometry x="560" y="500" width="240" height="300" as="geometry" />
        </mxCell>
        <mxCell id="QMuIwG_EA1-AN-d4cOTI-5" value="DB" style="shape=cylinder3;whiteSpace=wrap;html=1;boundedLbl=1;backgroundOutline=1;size=15;" vertex="1" parent="1">
          <mxGeometry x="493.75" y="860" width="112.5" height="150" as="geometry" />
        </mxCell>
      </root>
    </mxGraphModel>
  </diagram>
</mxfile>
